<?xml version="1.0" encoding="iso-8859-1"?>
<!-- Uploaded to: SVG Repo, www.svgrepo.com, Generator: SVG Repo Mixer Tools -->
<svg version="1.1" id="Layer_1" xmlns="http://www.w3.org/2000/svg" xmlns:xlink="http://www.w3.org/1999/xlink" 
	 viewBox="0 0 512 512" xml:space="preserve">
<polygon style="fill:#C6C5CA;" points="420.103,347.897 347.897,347.897 347.897,308.512 380.718,308.512 380.718,223.179 
	420.103,223.179 "/>
<path style="fill:#EDEDED;" d="M459.487,0H52.513C41.637,0,32.821,8.817,32.821,19.692v472.615c0,10.875,8.817,19.692,19.692,19.692
	h406.974c10.875,0,19.692-8.817,19.692-19.692v-39.385c0-10.875-8.817-19.692-19.692-19.692H177.231V144.41h150.974v85.333
	c0,10.875,8.817,19.692,19.692,19.692h111.59c10.875,0,19.692-8.817,19.692-19.692V19.692C479.18,8.817,470.363,0,459.487,0z"/>
<g>
	<path style="fill:#D8D8DA;" d="M459.487,512c10.875,0,19.692-8.817,19.692-19.692v-39.385c0-10.875-8.817-19.692-19.692-19.692H256
		V512H459.487z"/>
	<path style="fill:#D8D8DA;" d="M347.897,249.436h111.59c10.875,0,19.692-8.817,19.692-19.692V19.692
		C479.18,8.817,470.363,0,459.487,0H256v144.41h72.205v85.333C328.205,240.619,337.022,249.436,347.897,249.436z"/>
</g>
<path style="fill:#E07188;" d="M105.026,91.897c-14.478,0-26.256-11.779-26.256-26.256s11.779-26.256,26.256-26.256
	c14.479,0,26.256,11.779,26.256,26.256C131.277,80.121,119.498,91.897,105.026,91.897z"/>
<path style="fill:#D8D8DA;" d="M105.026,164.103c-14.478,0-26.256-11.779-26.256-26.256s11.779-26.256,26.256-26.256
	c14.479,0,26.256,11.779,26.256,26.256C131.277,152.327,119.498,164.103,105.026,164.103z"/>
<rect x="328.205" y="144.41" style="fill:#C6C5CA;" width="150.974" height="39.385"/>
</svg>